<svg xmlns="http://www.w3.org/2000/svg" width="9.002" height="10" viewBox="0 0 9.002 10"><ellipse cx="0.554" cy="0.584" rx="0.554" ry="0.584" transform="translate(2.77 3.047)" fill="#068"></ellipse><path d="M8.517,5.693A.775.775,0,0,0,9,5.036a.7.7,0,0,0-.415-.657C5.747,2.555,1.316.146,1.316.146h0A.963.963,0,0,0,.831,0,.865.865,0,0,0,0,.876H0V9.27H0A.728.728,0,0,0,.762,10a.6.6,0,0,0,.346-.073h0L2.354,9.2a.621.621,0,0,0,.277-.511.487.487,0,0,0-.485-.511h0a.246.246,0,0,0-.208.073c-.069,0-.208.073-.277.073a.487.487,0,0,1-.485-.511V7.591h0V2.117a.546.546,0,0,1,.554-.511H1.87L3.739,2.7,6.786,4.526s.346.219.346.511a.4.4,0,0,1-.277.438c-.208.073-.831.438-1.246.657L3.878,7.08v-1.9a.5.5,0,0,0-.554-.511.5.5,0,0,0-.554.511V7.81h0a.714.714,0,0,0,.692.73.6.6,0,0,0,.346-.073h0Z" fill="#068"></path></svg>
