<svg xmlns="http://www.w3.org/2000/svg" width="14.642" height="12.321" viewBox="0 0 14.642 12.321"
     class="breadcrumbs-home" role="img" aria-labelledby="adobe-summit-home-icon-footer">
    <title id="adobe-summit-home-icon-footer">Home</title>
    <path d="M14.692,8.471,7.811,1.8a.451.451,0,0,0-.622,0L.308,8.471a.418.418,0,0,0,0,.6l.813.787a.422.422,0,0,0,.294.117H1.69V13.6a.409.409,0,0,0,.415.4h3.32a.409.409,0,0,0,.415-.4V9.577a.409.409,0,0,1,.415-.4h2.49a.409.409,0,0,1,.415.4V13.6a.409.409,0,0,0,.415.4h3.32a.409.409,0,0,0,.415-.4V9.979h.276a.422.422,0,0,0,.294-.117l.813-.787A.418.418,0,0,0,14.692,8.471Z"
          transform="translate(-0.179 -1.679)" fill="#4b4b4b"></path>
</svg>
