<svg xmlns="http://www.w3.org/2000/svg" width="15.476" height="15.369" viewBox="0 0 15.476 15.369" class="grey-icon linkedin-icon" role="img" aria-describedby="adobe-summit-linkedin-footer">
    <title id="adobe-summit-linkedin-footer">Adobe LinkedIn Page</title>
    <path d="M443.2,313.4H429.96a1.1,1.1,0,0,0-1.16,1.063v13.242a1.1,1.1,0,0,0,1.16,1.063h13.145a1.1,1.1,0,0,0,1.16-1.063V314.463c.1-.483-.483-1.063-1.063-1.063Zm-9.666,12.952h-2.32v-6.959h2.32Zm-1.16-7.926h0a1.293,1.293,0,0,1-1.353-1.16c0-.677.483-1.16,1.353-1.16a1.288,1.288,0,0,1,1.353,1.16,1.229,1.229,0,0,1-1.353,1.16Zm9.569,7.926h-2.32v-3.673c0-.967-.387-1.547-1.16-1.547a1.086,1.086,0,0,0-1.16.87,1.226,1.226,0,0,0-.1.58v3.866h-2.416v-6.959h2.32v.967a2.3,2.3,0,0,1,2.126-1.16c1.547,0,2.706.967,2.706,3.19Zm-4.833-5.9Zm0,0" transform="translate(-428.8 -313.4)"></path>
</svg>