<svg xmlns="http://www.w3.org/2000/svg" width="16.002" height="16" viewBox="0 0 16.002 16">
    <g transform="translate(-2509 -2171)" class="grey-icon instagram-icon" role="img" aria-describedby="adobe-summit-instagram-footer">
        <title id="adobe-summit-instagram-footer">Adobe Instagram Page</title>
        <path d="M9,2.441c2.136,0,2.389.009,3.233.047a4.419,4.419,0,0,1,1.485.276,2.472,2.472,0,0,1,.92.6,2.472,2.472,0,0,1,.6.92,4.419,4.419,0,0,1,.276,1.485c.038.844.047,1.1.047,3.233s-.009,2.389-.047,3.233a4.419,4.419,0,0,1-.276,1.485,2.644,2.644,0,0,1-1.518,1.518,4.419,4.419,0,0,1-1.485.276c-.844.038-1.1.047-3.233.047s-2.389-.009-3.233-.047a4.419,4.419,0,0,1-1.485-.276,2.472,2.472,0,0,1-.92-.6,2.472,2.472,0,0,1-.6-.92,4.419,4.419,0,0,1-.276-1.485c-.038-.844-.047-1.1-.047-3.233s.009-2.389.047-3.233a4.419,4.419,0,0,1,.276-1.485,2.472,2.472,0,0,1,.6-.92,2.472,2.472,0,0,1,.92-.6,4.419,4.419,0,0,1,1.485-.276C6.611,2.45,6.864,2.441,9,2.441ZM9,1c-2.173,0-2.445.009-3.3.048a5.868,5.868,0,0,0-1.94.372,3.908,3.908,0,0,0-1.417.923A3.908,3.908,0,0,0,1.42,3.76,5.868,5.868,0,0,0,1.048,5.7C1.009,6.555,1,6.827,1,9s.009,2.445.048,3.3a5.868,5.868,0,0,0,.372,1.94,3.908,3.908,0,0,0,.923,1.417,3.908,3.908,0,0,0,1.417.923,5.868,5.868,0,0,0,1.942.372C6.555,16.991,6.827,17,9,17s2.445-.009,3.3-.048a5.868,5.868,0,0,0,1.942-.372,4.094,4.094,0,0,0,2.34-2.34,5.868,5.868,0,0,0,.372-1.942c.039-.853.048-1.125.048-3.3s-.009-2.445-.048-3.3A5.868,5.868,0,0,0,16.58,3.76a3.908,3.908,0,0,0-.923-1.417A3.908,3.908,0,0,0,14.24,1.42a5.868,5.868,0,0,0-1.94-.372C11.445,1.009,11.173,1,9,1Z" transform="translate(2508 2170)"></path>
        <path d="M9,4.892A4.108,4.108,0,1,0,13.108,9,4.108,4.108,0,0,0,9,4.892Zm0,6.775A2.667,2.667,0,1,1,11.667,9,2.667,2.667,0,0,1,9,11.667Z" transform="translate(2508 2170)">
            <circle cx="0.96" cy="0.96" r="0.96" transform="translate(2520.311 2173.77)"></circle>
        </path>
    </g>
</svg>