<svg xmlns="http://www.w3.org/2000/svg" width="22.433" height="15.805" viewBox="0 0 22.433 15.805" class="grey-icon youtube-icon" role="img" aria-describedby="adobe-summit-youtube-footer">
    <title id="adobe-summit-youtube-footer">Adobe Experience Cloud YouTube Channel</title>
    <path d="M-395.036-129.532a2.819,2.819,0,0,0-1.983-2c-1.749-.472-8.764-.472-8.764-.472s-7.015,0-8.764.472a2.819,2.819,0,0,0-1.983,2A29.566,29.566,0,0,0-417-124.1a29.565,29.565,0,0,0,.469,5.435,2.819,2.819,0,0,0,1.983,2c1.749.472,8.764.472,8.764.472s7.015,0,8.764-.472a2.819,2.819,0,0,0,1.983-2,29.565,29.565,0,0,0,.469-5.435A29.566,29.566,0,0,0-395.036-129.532Zm-13.042,8.77v-6.671l5.863,3.336Z" transform="translate(417 132)"></path>
</svg>