<svg xmlns="http://www.w3.org/2000/svg" width="17" height="13.818" viewBox="0 0 17 13.818" class="grey-icon twitter-icon" role="img" aria-describedby="adobe-summit-twitter-footer">
    <title id="adobe-summit-twitter-footer">Adobe Summit Twitter Account</title>
    <path d="M17.538,3.747a7.014,7.014,0,0,1-2,.549,3.494,3.494,0,0,0,1.534-1.93,6.988,6.988,0,0,1-2.215.847A3.491,3.491,0,0,0,8.91,6.394,9.9,9.9,0,0,1,1.721,2.749,3.493,3.493,0,0,0,2.8,7.406,3.474,3.474,0,0,1,1.221,6.97v.044a3.49,3.49,0,0,0,2.8,3.419,3.475,3.475,0,0,1-1.575.06A3.491,3.491,0,0,0,5.7,12.915a6.994,6.994,0,0,1-4.33,1.493,7.124,7.124,0,0,1-.832-.048,9.873,9.873,0,0,0,5.346,1.567A9.856,9.856,0,0,0,15.807,6c0-.151,0-.3-.01-.451a7.1,7.1,0,0,0,1.741-1.8Z" transform="translate(-0.538 -2.109)"></path>
</svg>