<svg xmlns="http://www.w3.org/2000/svg" width="142.783" height="17.121" viewBox="0 0 142.783 17.121">
  <path id="Path_400548" data-name="Path 400548" d="M805.785,566.5a1.543,1.543,0,0,1-.214-.132l0-.3v-3.473c0-.068,0-.136,0-.136a.45.45,0,0,1,.241-.01,9.257,9.257,0,0,0,4.694,1.439c1.516,0,2.046-.565,2.046-1.148,0-.607-.409-.9-2.022-1.554l-1.083-.437c-2.744-1.093-3.9-2.55-3.9-4.736,0-2.477,1.83-4.93,6.234-4.93a10.687,10.687,0,0,1,3.851.607l.192.094s0,.132,0,.222v3.476l-.265-.155a8.342,8.342,0,0,0-3.972-.9c-1.469,0-1.95.686-1.95,1.221,0,.461.217.85,2.022,1.53l.963.364c3.418,1.263,4.165,2.818,4.165,4.857,0,3.255-2.793,4.93-6.6,4.93A10.041,10.041,0,0,1,805.785,566.5Zm-45.867-15.469v4.254l-.078-.015a6.055,6.055,0,0,0-1.15-.109,6.541,6.541,0,0,0-2.212.388,5.58,5.58,0,0,0-1.927,1.17,5.992,5.992,0,0,0-1.363,1.922,7,7,0,0,0,.044,5.392,5.5,5.5,0,0,0,1.476,1.9,6.122,6.122,0,0,0,2.052,1.091,7.75,7.75,0,0,0,2.293.353,12.126,12.126,0,0,0,2.562-.251,11.34,11.34,0,0,0,2.227-.736V551.028Zm0,12.849-.051.012a3.754,3.754,0,0,1-.858.1,2.543,2.543,0,0,1-1.192-.294,2.223,2.223,0,0,1-.9-.9,3.124,3.124,0,0,1-.339-1.539,3.339,3.339,0,0,1,.327-1.571,2.05,2.05,0,0,1,.907-.9,2.831,2.831,0,0,1,1.271-.283,3.33,3.33,0,0,1,.79.094l.05.012Zm15.884-5.992a5.389,5.389,0,0,0-2.162-2.067,6.09,6.09,0,0,0-1.421-.528,6.741,6.741,0,0,0-1.557-.178,6.371,6.371,0,0,0-2.978.706,5.464,5.464,0,0,0-2.173,2.068,7.217,7.217,0,0,0,0,6.691,5.556,5.556,0,0,0,2.173,2.08,6.524,6.524,0,0,0,5.944,0,5.456,5.456,0,0,0,2.173-2.079,7.31,7.31,0,0,0,0-6.693Zm-3.338,4.892a2.54,2.54,0,0,1-.338.536,1.856,1.856,0,0,1-.427.377,1.96,1.96,0,0,1-2.075,0,2.12,2.12,0,0,1-.765-.913,4.285,4.285,0,0,1,0-3.1,2.134,2.134,0,0,1,.765-.9,1.959,1.959,0,0,1,2.075,0,2.142,2.142,0,0,1,.765.9,4.271,4.271,0,0,1,0,3.1Zm15.682-4.29a5.212,5.212,0,0,0-1.317-1.862,5.541,5.541,0,0,0-1.835-1.091,6.135,6.135,0,0,0-2.041-.353,6.279,6.279,0,0,0-1.467.163l-.08.019v-4.336h-3.948v15.38a10.354,10.354,0,0,0,2.2.725,12.463,12.463,0,0,0,2.516.24,7.347,7.347,0,0,0,2.383-.4,6.444,6.444,0,0,0,2.087-1.184,5.543,5.543,0,0,0,1.453-1.943,6.5,6.5,0,0,0,.53-2.709A6.706,6.706,0,0,0,788.147,558.487Zm-3.736,4.273a2.624,2.624,0,0,1-.418.539,2.4,2.4,0,0,1-.53.393,2.57,2.57,0,0,1-1.24.318,3.109,3.109,0,0,1-.768-.1l-.049-.013v-5.27l.051-.011a3.941,3.941,0,0,1,.881-.095,2.6,2.6,0,0,1,1.2.283,2.187,2.187,0,0,1,.893.877,3.01,3.01,0,0,1,.339,1.5A3.076,3.076,0,0,1,784.411,562.76Zm15.817-4.341a5.757,5.757,0,0,0-.541-.974,5.085,5.085,0,0,0-.7-.809,5.373,5.373,0,0,0-1.757-1.1,5.682,5.682,0,0,0-2.039-.375,5.741,5.741,0,0,0-2.862.739,5.6,5.6,0,0,0-2.095,2.091,6.841,6.841,0,0,0-.271,5.8,5.508,5.508,0,0,0,1.43,1.931,6.387,6.387,0,0,0,2.109,1.2,8,8,0,0,0,2.6.41,8.7,8.7,0,0,0,1.99-.229,8,8,0,0,0,1.819-.665v-3.122a11.993,11.993,0,0,1-1.695.639,6.366,6.366,0,0,1-1.75.244,4.146,4.146,0,0,1-1.7-.328,2.655,2.655,0,0,1-1.168-1,2.452,2.452,0,0,1-.228-.46l-.033-.09H800.6c.014-.2.031-.425.053-.676s.034-.518.034-.776A6.085,6.085,0,0,0,800.229,558.419Zm-6.955,1.522.021-.082a2.72,2.72,0,0,1,.143-.425,2.266,2.266,0,0,1,.764-.982,1.824,1.824,0,0,1,1.04-.322,1.919,1.919,0,0,1,.942.25,2.035,2.035,0,0,1,.754.772,2.068,2.068,0,0,1,.243.713l.013.076Zm-48.5-3.646-2.923,7.325h3.514l1.231,3.547H735.934l6.622-15.962h4.608l6.6,15.962h-4.69Zm125.778-3.913a2.111,2.111,0,1,1-2.111-2.129A2.12,2.12,0,0,1,870.548,552.381Zm-.093,2.966H866.42v11.743h4.034Zm-45.972,0h-.372v8.167a1.9,1.9,0,0,1-1.345.514c-1.09,0-1.391-.725-1.391-1.778v-6.9h-4.034v7.415c0,3.415,1.808,4.561,4.1,4.561a4.565,4.565,0,0,0,3.037-.959v.722h3.663V555.344Zm54.235,3.161v-2.971c0-.1-.026-.157-.106-.177v-.009h-2a.455.455,0,0,0-.006-.067v-3.336l-4.034.608v2.795h-1.352V558.5h1.335v5.286c0,2.409,1.3,3.532,3.524,3.532a5.647,5.647,0,0,0,2.365-.4c.108-.046.209-.092.209-.092v-2.551c0-.187-.116-.211-.209-.187a2.689,2.689,0,0,1-.672.093c-.9,0-1.159-.374-1.159-1.38v-4.3Zm-36-3.368a5.69,5.69,0,0,0-3.779,1.357,3.52,3.52,0,0,0-2.968-1.357,5.031,5.031,0,0,0-3.269,1.053c-.008-.031-.016-.068-.024-.106v-.737h-3.663v11.743h3.8c.015,0,.028,0,.041,0h.195v-8.117a2.105,2.105,0,0,1,1.411-.558,1.33,1.33,0,0,1,1.418,1.375v7.3h.23c.021,0,.044,0,.068,0h3.547a.311.311,0,0,0,.033,0h.157v-.106a.438.438,0,0,0,.019-.148V560.1c0-.28,0-.6-.019-.83v-.224a2.157,2.157,0,0,1,1.457-.654c1.09,0,1.414.725,1.414,1.707v6.991h.2a.265.265,0,0,0,.032,0h3.547a.468.468,0,0,0,.048,0h.208v-7.225C846.82,556.376,844.9,555.137,842.716,555.137Zm18.714,0a5.689,5.689,0,0,0-3.779,1.357,3.52,3.52,0,0,0-2.968-1.357,5.031,5.031,0,0,0-3.269,1.053c-.008-.031-.016-.068-.024-.106v-.739h-3.663v11.742h.185a.443.443,0,0,0,.047,0h3.571c.015,0,.028,0,.041,0h.191v-8.114a2.1,2.1,0,0,1,1.414-.561,1.329,1.329,0,0,1,1.418,1.371v7.307h4.034v-.109a.436.436,0,0,0,.02-.148V560.1c0-.28,0-.6-.02-.831v-.222a2.157,2.157,0,0,1,1.457-.654c1.084,0,1.411.718,1.414,1.693v7.009h4.034v-7.228C865.534,556.376,863.609,555.137,861.43,555.137Z" transform="translate(-735.934 -550.252)" fill="#eb1000"/>
</svg>
